<svg id="Time-Movie--Streamline-Atlas.svg" xmlns="http://www.w3.org/2000/svg" viewBox="-0.5 -0.5 26 26" height="26" width="26"><desc>Time Movie Streamline Icon: https://streamlinehq.com</desc><defs></defs><path d="M1.1938541666666664 2.1376041666666663H23.80614583333333" fill="none" stroke="currentColor" stroke-miterlimit="10" stroke-width="1"></path><path d="M1.1938541666666664 5.903124999999999H3.081458333333333" fill="none" stroke="currentColor" stroke-miterlimit="10" stroke-width="1"></path><path d="M4.959270833333333 5.903124999999999H6.846875" fill="none" stroke="currentColor" stroke-miterlimit="10" stroke-width="1"></path><path d="M8.734583333333331 5.903124999999999H10.612395833333332" fill="none" stroke="currentColor" stroke-miterlimit="10" stroke-width="1"></path><path d="M12.499999999999998 5.903124999999999H14.387604166666664" fill="none" stroke="currentColor" stroke-miterlimit="10" stroke-width="1"></path><path d="M16.265416666666663 5.903124999999999H18.153124999999996" fill="none" stroke="currentColor" stroke-miterlimit="10" stroke-width="1"></path><path d="M20.040729166666665 5.903124999999999H21.918541666666663" fill="none" stroke="currentColor" stroke-miterlimit="10" stroke-width="1"></path><path d="M1.1938541666666664 20.040729166666665H10.612395833333332" fill="none" stroke="currentColor" stroke-miterlimit="10" stroke-width="1"></path><path d="M1.1938541666666664 16.265416666666663H3.081458333333333" fill="none" stroke="currentColor" stroke-miterlimit="10" stroke-width="1"></path><path d="M4.959270833333333 16.265416666666663H6.846875" fill="none" stroke="currentColor" stroke-miterlimit="10" stroke-width="1"></path><path d="M8.734583333333331 16.265416666666663H10.612395833333332" fill="none" stroke="currentColor" stroke-miterlimit="10" stroke-width="1"></path><path d="M13.443854166666664 18.153124999999996C13.443854166666664 21.77833333333333 17.368229166666666 24.044062499999995 20.50770833333333 22.23145833333333C21.964791666666667 21.39020833333333 22.86239583333333 19.83552083333333 22.86239583333333 18.153124999999996C22.86239583333333 14.527916666666664 18.93802083333333 12.262187499999998 15.798437499999997 14.074791666666664C14.341354166666664 14.915937499999998 13.443854166666664 16.470625 13.443854166666664 18.153124999999996" fill="none" stroke="currentColor" stroke-miterlimit="10" stroke-width="1"></path><path d="M20.98458333333333 18.153124999999996H18.153124999999996V15.33145833333333" fill="none" stroke="currentColor" stroke-miterlimit="10" stroke-width="1"></path></svg>