<svg id="Train-Travel--Streamline-Atlas.svg" xmlns="http://www.w3.org/2000/svg" viewBox="-0.5 -0.5 26 26" height="26" width="26"><desc>Train Travel Streamline Icon: https://streamlinehq.com</desc><defs></defs><path d="M0.5208333333333333 6.510416666666666h13.979166666666664a8.979166666666664 8.979166666666664 0 0 1 8.979166666666664 8.979166666666664 2.9999999999999996 2.9999999999999996 0 0 1 -2.989583333333333 2.989583333333333H0.5208333333333333" fill="none" stroke="currentColor" stroke-miterlimit="10" stroke-width="1"></path><path d="m23.47916666666666 13.499999999999998 -8.979166666666664 0 0 -6.989583333333332" fill="none" stroke="currentColor" stroke-miterlimit="10" stroke-width="1"></path><path d="m10.499999999999998 9.510416666666666 0 3.989583333333333 -3.989583333333333 0 0 -3.989583333333333" fill="none" stroke="currentColor" stroke-miterlimit="10" stroke-width="1"></path><path d="m6.510416666666666 9.510416666666666 0 3.989583333333333 -3.989583333333333 0 0 -3.989583333333333" fill="none" stroke="currentColor" stroke-miterlimit="10" stroke-width="1"></path><path d="m2.520833333333333 13.499999999999998 -1.9999999999999996 0" fill="none" stroke="currentColor" stroke-miterlimit="10" stroke-width="1"></path><path d="m18.489583333333332 18.489583333333332 1.9999999999999996 3.989583333333333" fill="none" stroke="currentColor" stroke-miterlimit="10" stroke-width="1"></path><path d="m14.499999999999998 18.489583333333332 1.989583333333333 3.989583333333333" fill="none" stroke="currentColor" stroke-miterlimit="10" stroke-width="1"></path><path d="M10.499999999999998 18.489583333333332 12.499999999999998 22.47916666666666" fill="none" stroke="currentColor" stroke-miterlimit="10" stroke-width="1"></path><path d="m6.510416666666666 18.489583333333332 1.9999999999999996 3.989583333333333" fill="none" stroke="currentColor" stroke-miterlimit="10" stroke-width="1"></path><path d="m2.520833333333333 18.489583333333332 1.989583333333333 3.989583333333333" fill="none" stroke="currentColor" stroke-miterlimit="10" stroke-width="1"></path><path d="m0.5208333333333333 22.47916666666666 23.95833333333333 0" fill="none" stroke="currentColor" stroke-miterlimit="10" stroke-width="1"></path><path d="m8.510416666666666 2.520833333333333 1.989583333333333 3.989583333333333" fill="none" stroke="currentColor" stroke-miterlimit="10" stroke-width="1"></path><path d="m3.5208333333333326 2.520833333333333 7.979166666666666 0" fill="none" stroke="currentColor" stroke-miterlimit="10" stroke-width="1"></path></svg>